# 3ds Max Wavefront OBJ Exporter v0.97b - (c)2007 guruware
# File Created: 02.04.2012 10:26:33

mtllib cornell.mtl

#
# object default
#

v  550.0000 0.0000 -0.0000
v  550.0000 0.0000 -550.0000
v  -0.0000 0.0000 -0.0000
v  -0.0000 0.0000 -550.0000
v  550.0000 550.0000 -550.0000
v  -0.0000 550.0000 -550.0000
v  300.0000 550.0000 -250.0000
v  550.0000 550.0000 -0.0000
v  -0.0000 550.0000 -0.0000
v  300.0000 550.0000 -300.0000
v  250.0000 550.0000 -250.0000
v  250.0000 550.0000 -300.0000
# 12 vertices

vn 0.0000 1.0000 -0.0000
vn 0.0000 0.0000 1.0000
vn 0.0000 -1.0000 -0.0000
vn 0.0000 0.0000 -1.0000
# 4 vertex normals

g default
usemtl Material__79
s 1
f 1//1 2//1 3//1 
f 2//1 4//1 3//1 
s 2
f 2//2 5//2 4//2 
f 5//2 6//2 4//2 
s 1
f 7//3 8//3 9//3 
f 7//3 5//3 8//3 
f 10//3 5//3 7//3 
f 6//3 5//3 10//3 
f 11//3 7//3 9//3 
f 6//3 11//3 9//3 
f 6//3 12//3 11//3 
f 6//3 10//3 12//3 
s 2
f 1//4 3//4 9//4 8//4 
# 1 polygons - 12 triangles

#
# object box_tall
#

v  241.0000 330.0000 -456.0000
v  241.0000 0.0000 -456.0000
v  83.0000 0.0000 -406.0000
v  83.0000 330.0000 -406.0000
v  290.0000 0.0000 -296.0000
v  290.0000 330.0000 -296.0000
v  132.0000 330.0000 -247.0000
v  132.0000 0.0000 -247.0000
# 8 vertices

vn -0.3017 0.0000 -0.9534
vn 0.9562 0.0000 -0.2928
vn 0.0000 1.0000 -0.0000
vn -0.9556 0.0000 0.2945
vn 0.2962 0.0000 0.9551
# 5 vertex normals

g box_tall
usemtl Material__79
s 1
f 13//5 14//5 15//5 
f 16//5 13//5 15//5 
s 2
f 14//6 13//6 17//6 
f 13//6 18//6 17//6 
s 4
f 13//7 16//7 18//7 
f 18//7 16//7 19//7 
s 2
f 16//8 15//8 20//8 
f 19//8 16//8 20//8 
s 1
f 17//9 18//9 20//9 
f 18//9 19//9 20//9 
# 0 polygons - 10 triangles

#
# object box_short
#

v  315.0000 165.0000 -272.0000
v  315.0000 0.0000 -272.0000
v  265.0000 0.0000 -114.0000
v  265.0000 165.0000 -114.0000
v  473.0000 0.0000 -225.0000
v  473.0000 165.0000 -225.0000
v  425.0000 165.0000 -65.0000
v  425.0000 0.0000 -65.0000
# 8 vertices

vn -0.9534 0.0000 -0.3017
vn 0.2851 0.0000 -0.9585
vn 0.0000 1.0000 -0.0000
vn -0.2928 0.0000 0.9562
vn 0.9578 0.0000 0.2873
# 5 vertex normals

g box_short
usemtl Material__79
s 1
f 21//10 22//10 23//10 
f 24//10 21//10 23//10 
s 2
f 22//11 21//11 25//11 
f 21//11 26//11 25//11 
s 4
f 26//12 21//12 27//12 
f 21//12 24//12 27//12 
s 2
f 24//13 23//13 28//13 
f 27//13 24//13 28//13 
s 1
f 25//14 26//14 28//14 
f 26//14 27//14 28//14 
# 0 polygons - 10 triangles

#
# object wall_green
#

v  550.0000 550.0000 -0.0000
v  550.0000 550.0000 -550.0000
v  550.0000 0.0000 -550.0000
v  550.0000 0.0000 -0.0000
# 4 vertices

vn -1.0000 0.0000 -0.0000
# 1 vertex normals

g wall_green
usemtl Material__91
s 1
f 29//15 30//15 31//15 
f 29//15 31//15 32//15 
# 0 polygons - 2 triangles

#
# object wall_red
#

v  -0.0000 550.0000 -550.0000
v  -0.0000 550.0000 -0.0000
v  -0.0000 0.0000 -550.0000
v  -0.0000 0.0000 -0.0000
# 4 vertices

vn 1.0000 0.0000 -0.0000
# 1 vertex normals

g wall_red
usemtl Material__90
s 1
f 33//16 34//16 35//16 
f 35//16 34//16 36//16 
# 0 polygons - 2 triangles

