# 3ds Max Wavefront OBJ Exporter v0.97b - (c)2007 guruware
# File Created: 02.04.2012 10:38:45

mtllib cornell.mtl

#
# object default
#

v  550.0000 0.0000 -550.0000
v  -0.0000 0.0000 -550.0000
v  -0.0000 0.0000 -0.0000
v  550.0000 0.0000 -0.0000
v  550.0000 550.0000 -550.0000
v  -0.0000 550.0000 -550.0000
v  300.0000 550.0000 -250.0000
v  550.0000 550.0000 -0.0000
v  -0.0000 550.0000 -0.0000
v  300.0000 550.0000 -300.0000
v  250.0000 550.0000 -250.0000
v  250.0000 550.0000 -300.0000
# 12 vertices

vn 0.0000 1.0000 -0.0000
vn 0.0000 0.0000 1.0000
vn 0.0000 -1.0000 -0.0000
vn 0.0000 0.0000 -1.0000
# 4 vertex normals

g default
usemtl Material__79
s 1
f 1//1 2//1 3//1 4//1 
s 2
f 5//2 6//2 2//2 1//2 
s 1
f 7//3 8//3 9//3 
f 7//3 5//3 8//3 
f 10//3 5//3 7//3 
f 6//3 5//3 10//3 
f 11//3 7//3 9//3 
f 6//3 11//3 9//3 
f 6//3 12//3 11//3 
f 6//3 10//3 12//3 
s 2
f 4//4 3//4 9//4 8//4 
# 3 polygons - 8 triangles

#
# object box_tall
#

v  83.0000 0.0000 -406.0000
v  83.0000 330.0000 -406.0000
v  241.0000 330.0000 -456.0000
v  241.0000 0.0000 -456.0000
v  290.0000 330.0000 -296.0000
v  290.0000 0.0000 -296.0000
v  132.0000 330.0000 -247.0000
v  132.0000 0.0000 -247.0000
# 8 vertices

vn -0.3017 0.0000 -0.9534
vn 0.9562 0.0000 -0.2928
vn 0.0000 1.0000 -0.0000
vn -0.9556 0.0000 0.2945
vn 0.2962 0.0000 0.9551
# 5 vertex normals

g box_tall
usemtl Material__79
s 1
f 13//5 14//5 15//5 16//5 
s 2
f 15//6 17//6 18//6 16//6 
s 4
f 14//7 19//7 17//7 15//7 
s 2
f 20//8 19//8 14//8 13//8 
s 1
f 17//9 19//9 20//9 18//9 
# 5 polygons

#
# object box_short
#

v  265.0000 0.0000 -114.0000
v  265.0000 165.0000 -114.0000
v  315.0000 165.0000 -272.0000
v  315.0000 0.0000 -272.0000
v  473.0000 165.0000 -225.0000
v  473.0000 0.0000 -225.0000
v  425.0000 165.0000 -65.0000
v  425.0000 0.0000 -65.0000
# 8 vertices

vn -0.9534 0.0000 -0.3017
vn 0.2851 0.0000 -0.9585
vn 0.0000 1.0000 -0.0000
vn -0.2928 0.0000 0.9562
vn 0.9578 0.0000 0.2873
# 5 vertex normals

g box_short
usemtl Material__79
s 1
f 21//10 22//10 23//10 24//10 
s 2
f 23//11 25//11 26//11 24//11 
s 4
f 23//12 22//12 27//12 25//12 
s 2
f 28//13 27//13 22//13 21//13 
s 1
f 25//14 27//14 28//14 26//14 
# 5 polygons

#
# object wall_green
#

v  550.0000 550.0000 -0.0000
v  550.0000 550.0000 -275.0000
v  550.0000 275.0000 -275.0000
v  550.0000 275.0000 -0.0000
v  550.0000 550.0000 -550.0000
v  550.0000 275.0000 -550.0000
v  550.0000 0.0000 -550.0000
v  550.0000 0.0000 -275.0000
v  550.0000 0.0000 -0.0000
# 9 vertices

vn -1.0000 0.0000 -0.0000
# 1 vertex normals

g wall_green
usemtl Material__91
s 2
f 29//15 30//15 31//15 32//15 
f 33//15 34//15 31//15 30//15 
f 35//15 36//15 31//15 34//15 
f 37//15 32//15 31//15 36//15 
# 4 polygons

#
# object wall_red
#

v  -0.0000 550.0000 -550.0000
v  -0.0000 550.0000 -275.0000
v  -0.0000 275.0000 -275.0000
v  -0.0000 275.0000 -550.0000
v  -0.0000 550.0000 -0.0000
v  -0.0000 275.0000 -0.0000
v  -0.0000 0.0000 -0.0000
v  -0.0000 0.0000 -275.0000
v  -0.0000 0.0000 -550.0000
# 9 vertices

vn 1.0000 0.0000 -0.0000
# 1 vertex normals

g wall_red
usemtl Material__90
s 2
f 38//16 39//16 40//16 41//16 
f 42//16 43//16 40//16 39//16 
f 44//16 45//16 40//16 43//16 
f 46//16 41//16 40//16 45//16 
# 4 polygons

